<?xml version="1.0" encoding="UTF-8" standalone="no"?>
<!-- Created with Inkscape (http://www.inkscape.org/) -->

<svg
   width="112.36979mm"
   height="115.65217mm"
   viewBox="0 0 112.36979 115.65217"
   version="1.1"
   id="svg1"
   xml:space="preserve"
   xmlns:inkscape="http://www.inkscape.org/namespaces/inkscape"
   xmlns:sodipodi="http://sodipodi.sourceforge.net/DTD/sodipodi-0.dtd"
   xmlns="http://www.w3.org/2000/svg"
   xmlns:svg="http://www.w3.org/2000/svg"><sodipodi:namedview
     id="namedview1"
     pagecolor="#ffffff"
     bordercolor="#000000"
     borderopacity="0.25"
     inkscape:showpageshadow="2"
     inkscape:pageopacity="0.0"
     inkscape:pagecheckerboard="0"
     inkscape:deskcolor="#d1d1d1"
     inkscape:document-units="mm" /><defs
     id="defs1" /><g
     inkscape:label="Layer 1"
     inkscape:groupmode="layer"
     id="layer1"
     transform="translate(-73.804346,-110.83334)"><path
       style="fill:#ffffff;fill-opacity:1;stroke:none;stroke-width:23.187;stroke-dasharray:none;stroke-opacity:1;paint-order:fill markers stroke"
       d="m 597.4894,811.75625 c -26.36336,-26.13449 -45.67766,-43.85356 -47.17525,-43.27887 -1.39468,0.53519 -9.60787,13.36289 -18.25153,28.50601 -20.77341,36.39368 -21.09215,36.78587 -29.89616,36.78587 -5.46317,0 -7.93601,-1.10509 -10.24687,-4.57923 -3.92852,-5.90614 -113.17562,-279.88289 -113.2363,-283.98113 -0.0745,-5.03304 7.52714,-13.19931 12.28671,-13.19931 3.46295,0 156.15798,59.28162 180.34119,70.01484 3.16331,1.40397 27.62652,11.19284 54.36272,21.75305 26.73619,10.56021 50.24527,20.67914 52.24238,22.4865 6.31826,5.71795 3.54681,16.69878 -5.57473,22.08767 -16.21529,9.57979 -40.58643,23.78052 -46.39154,27.03172 -14.67183,8.21707 -16.53222,5.04696 30.99267,52.8115 23.85355,23.97381 44.32108,45.46738 45.48343,47.76348 1.16235,2.29608 1.56957,5.74695 0.90493,7.66861 -0.66464,1.92163 -12.08011,14.49355 -25.36771,27.93757 -20.43168,20.67217 -25.06001,24.44369 -29.99689,24.44369 -5.04746,0 -11.87967,-5.98965 -50.47705,-44.25197 z m 62.04302,0.77308 c 4.72721,-4.9336 8.58613,-10.32559 8.57538,-11.9822 -0.0108,-1.65663 -20.21019,-23.14631 -44.88765,-47.75487 -26.042,-25.96928 -45.37643,-46.76811 -46.07957,-49.56966 -1.99403,-7.94481 3.15471,-12.83032 29.07873,-27.59207 24.56666,-13.98884 28.41379,-16.86459 25.88162,-19.34657 -0.74692,-0.73212 -12.57337,-5.78667 -26.28101,-11.23234 -13.70763,-5.44567 -28.58013,-11.53995 -33.04996,-13.54284 -4.46986,-2.00289 -9.25794,-3.64161 -10.6402,-3.64161 -1.38225,0 -3.33277,-0.75618 -4.33448,-1.68039 -1.00172,-0.92422 -6.99761,-3.53448 -13.32421,-5.80058 -6.3266,-2.26609 -13.22834,-4.91539 -15.33721,-5.88733 -2.10887,-0.97193 -9.87333,-4.07952 -17.25437,-6.90575 -7.38103,-2.82623 -17.9749,-7.18522 -23.54192,-9.68664 -5.56702,-2.50142 -11.21783,-4.54804 -12.55734,-4.54804 -1.33952,0 -3.25507,-0.7783 -4.25678,-1.72956 -1.00171,-0.95126 -5.70353,-3.06853 -10.44848,-4.70506 -4.74495,-1.63652 -14.97127,-5.60317 -22.72517,-8.81477 -14.85374,-6.1523 -19.45216,-7.07836 -19.45216,-3.91738 0,1.71471 25.29557,66.97467 31.58041,81.4742 1.37114,3.1633 13.10127,32.49572 26.06696,65.18315 12.96569,32.68744 24.53596,60.88447 25.71172,62.66007 1.17575,1.77559 3.02485,2.63831 4.10909,1.91716 1.08425,-0.72118 8.31202,-12.36818 16.06171,-25.88222 14.29828,-24.93363 18.73312,-30.06782 25.97213,-30.06782 2.70516,0 19.25308,15.15673 50.23491,46.01164 25.41049,25.3064 47.57385,46.01164 49.25192,46.01164 1.67806,0 6.91873,-4.03659 11.64593,-8.97016 z"
       id="path13"
       transform="scale(0.26458333)" /><path
       style="fill:#ffffff;fill-opacity:1;stroke:none;stroke-width:23.187;stroke-dasharray:none;stroke-opacity:1;paint-order:fill markers stroke"
       d="m 329.75009,706.566 c -23.09722,-4.3598 -39.46536,-17.90624 -47.19783,-39.06138 -3.34834,-9.16066 -3.60669,-16.62761 -3.60669,-104.24234 0,-91.92699 0.1071,-94.66112 4.12914,-105.41099 5.57157,-14.89137 19.93314,-29.25293 34.82451,-34.82451 10.71991,-4.01083 13.60024,-4.12914 100.52695,-4.12914 79.13475,0 90.4966,0.37322 98.18211,3.22519 18.04362,6.6957 31.6529,19.90635 37.55603,36.45599 1.95482,5.48042 2.62084,21.20327 2.6841,63.36572 0.0926,61.69324 0.58728,59.40953 -11.51397,53.15173 l -5.65625,-2.92496 -0.0421,-51.23458 c -0.0373,-45.40807 -0.43914,-52.10853 -3.53335,-58.91962 -3.79557,-8.35494 -14.95186,-19.19896 -22.99836,-22.35459 -3.2063,-1.25744 -38.05972,-2.05268 -95.16532,-2.17136 -83.5476,-0.17363 -90.59453,0.0662 -96.81616,3.29535 -9.34394,4.84965 -15.02227,10.38272 -19.83737,19.32989 -4.06582,7.55487 -4.12702,9.07678 -4.12702,102.61879 v 94.95019 l 4.89764,9.51702 c 2.96254,5.75679 8.13833,11.79643 13.09969,15.28605 l 8.20205,5.769 47.29058,0.95857 47.29059,0.95858 3.4934,7.14848 c 1.92137,3.93166 3.02558,7.90543 2.45379,8.83059 -1.27532,2.06353 -83.48099,2.42359 -94.13616,0.41233 z"
       id="path14"
       transform="scale(0.26458333)" /><path
       style="fill:#ffffff;fill-opacity:1;stroke:none;stroke-width:23.187;stroke-dasharray:none;stroke-opacity:1;paint-order:fill markers stroke"
       d="m 345.00795,675.95953 c -9.73145,-1.59971 -20.71935,-8.30215 -26.49542,-16.1618 -9.77493,-13.30102 -9.85111,-14.05943 -9.85111,-98.07229 v -78.60322 l 5.23456,-8.90441 c 2.87902,-4.89743 7.94379,-11.18407 11.25507,-13.97032 12.58825,-10.59232 13.34951,-10.67889 93.50143,-10.63332 81.96089,0.0466 82.54581,0.12563 95.63674,12.92242 12.33608,12.05891 12.86727,14.465 13.53856,61.3251 0.55078,38.44801 0.30191,42.65663 -2.52247,42.65663 -1.72347,0 -4.80228,-0.89308 -6.84182,-1.98461 -3.46947,-1.8568 -3.70827,-4.36562 -3.70827,-38.95928 0,-42.69341 -1.32753,-47.63548 -15.32003,-57.03296 l -8.26278,-5.54934 h -71.37056 c -76.52034,0 -79.69931,0.35603 -88.37433,9.89764 -8.58615,9.44387 -8.61579,9.75886 -8.45369,89.83376 0.0852,42.11037 0.72381,78.09256 1.41901,79.96044 2.35107,6.31684 9.01672,14.0492 14.87046,17.25017 4.55113,2.48867 12.60797,3.34865 36.86404,3.93484 30.76156,0.74339 31.06867,0.79381 34.23166,5.62114 2.63628,4.02347 2.73945,5.15752 0.59296,6.51765 -2.98902,1.89397 -54.35758,1.85641 -65.94401,-0.0482 z"
       id="path15"
       transform="scale(0.26458333)" /></g></svg>
